<svg width="22" height="16" viewBox="0 0 22 16" fill="none" xmlns="http://www.w3.org/2000/svg">
    <path fill-rule="evenodd" clip-rule="evenodd"
          d="M0 8C0 7.44772 0.447715 7 1 7H13C13.5523 7 14 7.44772 14 8C14 8.55228 13.5523 9 13 9H1C0.447715 9 0 8.55228 0 8Z"
          fill="white"/>
    <path fill-rule="evenodd" clip-rule="evenodd"
          d="M0 15C0 14.4477 0.447715 14 1 14H21C21.5523 14 22 14.4477 22 15C22 15.5523 21.5523 16 21 16H1C0.447715 16 0 15.5523 0 15Z"
          fill="white"/>
    <path fill-rule="evenodd" clip-rule="evenodd"
          d="M0 1C0 0.447715 0.447715 0 1 0H21C21.5523 0 22 0.447715 22 1C22 1.55228 21.5523 2 21 2H1C0.447715 2 0 1.55228 0 1Z"
          fill="white"/>
</svg>
